# xmcd
#
# Track frame offsets:
# 150
# 24434
# 37531
# 56370
# 72968
# 87828
# 103493
# 125661
# 140495
# 153598
# 179576
# 197925
# 213122
# 230286
# 245403
# 261201
# 273103
# 287083
# 303271
# 319610
# 336090
#
# Disc length: 4681 seconds
#
#
# Revision: 0
# Processed by: cddbd v1.5.2PL0 Copyright (c) Steve Scherf et al.
# Submitted via: FreeRIP 2.951 
#
DISCID=2b124715
DTITLE=Guilerme e Santiago - Guilerme e Santiago ao vivo
DYEAR=1900
DGENRE=Sertanejo 
TTITLE0=Chovendo estrelas
TTITLE1=O amor é assim
TTITLE2=Mentira de amor
TTITLE3=Só de você
TTITLE4=Não tem cachaça que cura
TTITLE5=A culpa é sua
TTITLE6=Anjo loiro/Dois de setembro/Meu goias
TTITLE7=Do outro lado da Cidade
TTITLE8=Dai q mioro
TTITLE9=Pout´pouri
TTITLE10=Tá por fora
TTITLE11=Porque brigamos
TTITLE12=A cidade
TTITLE13=E amor pra toda vida
TTITLE14=Foto 3x4
TTITLE15=Ladrão de mulher
TTITLE16=Marcas
TTITLE17=Quem ama uma vez nao dixa de amar
TTITLE18=chance
TTITLE19=quando vc vem me abraçar
TTITLE20=eu nunca te esqueci
EXTD=
EXTT0=
EXTT1=
EXTT2=
EXTT3=
EXTT4=
EXTT5=
EXTT6=
EXTT7=
EXTT8=
EXTT9=
EXTT10=
EXTT11=
EXTT12=
EXTT13=
EXTT14=
EXTT15=
EXTT16=
EXTT17=
EXTT18=
EXTT19=
EXTT20=
PLAYORDER=
